<svg xmlns="http://www.w3.org/2000/svg" viewBox="-1 0 48 30" width="480" height="300">
<defs>
<linearGradient id="fglowgr" x1="20" y1="28" x2="43" y2="2" gradientUnits="userSpaceOnUse"><stop offset="0" stop-color="#E5383B"/><stop offset=".5" stop-color="#FF5C5F"/><stop offset="1" stop-color="#FF9597"/></linearGradient>
<linearGradient id="fglowgl" x1="19.5" y1="28" x2="0" y2="13" gradientUnits="userSpaceOnUse"><stop offset="0" stop-color="#E5383B"/><stop offset=".55" stop-color="#FF5C5F"/><stop offset="1" stop-color="#FF9597"/></linearGradient>
<linearGradient id="fglowgb" x1="20" y1="28" x2="46" y2="15" gradientUnits="userSpaceOnUse"><stop offset="0" stop-color="#FF9597" stop-opacity=".9"/><stop offset="1" stop-color="#FF9597" stop-opacity=".6"/></linearGradient>
</defs>
<path d="M19.5 27 C13 14 14 6 21 2.5" fill="none" stroke="#E8A27E" stroke-width=".8" stroke-linecap="round"/>
<circle cx="21" cy="2.5" r="1.7" fill="#FF5C5F"/>
<path d="M20 28 C26 20 35 15.5 46 16 C40 23.5 31 28.5 20 28Z" fill="url(#fglowgb)"/>
<path d="M20 28 C21 16 30.5 6.5 43 2 C42.5 13.5 35 24 20 28Z" fill="url(#fglowgr)"/>
<path d="M19.5 28 C16.5 20 9.5 14 0 13 C2.5 21.5 10 27.5 19.5 28Z" fill="url(#fglowgl)"/>
<path d="M21.5 26 C26 17.5 32.5 9.5 40.5 4.5" fill="none" stroke="#FFFFFF" stroke-width=".7" stroke-linecap="round" stroke-opacity=".8"/>
<path d="M18 26.3 C14 20.5 8.5 16.5 2.5 14.5" fill="none" stroke="#FFFFFF" stroke-width=".7" stroke-linecap="round" stroke-opacity=".8"/>
</svg>
